<svg width="49" height="48" viewBox="0 0 49 48" fill="none" xmlns="http://www.w3.org/2000/svg">
<path d="M38.9419 21.606L24.4999 20V8C24.4999 6.93913 24.0785 5.92172 23.3284 5.17157C22.5782 4.42143 21.5608 4 20.4999 4C19.4391 4 18.4217 4.42143 17.6715 5.17157C16.9214 5.92172 16.4999 6.93913 16.4999 8V32L10.4379 29.576C9.93181 29.3736 9.38966 29.2769 8.84477 29.2916C8.29988 29.3063 7.76375 29.4323 7.2693 29.6617C6.77485 29.8912 6.3325 30.2192 5.96943 30.6258C5.60635 31.0324 5.33021 31.5088 5.15794 32.026L4.93194 32.706C4.80448 33.0876 4.79529 33.4987 4.90557 33.8856C5.01585 34.2725 5.24045 34.617 5.54994 34.874L15.9439 43.538C16.3019 43.836 16.7559 44 17.2239 44H38.4999C39.5608 44 40.5782 43.5786 41.3284 42.8284C42.0785 42.0783 42.4999 41.0609 42.4999 40V25.58C42.4996 24.5959 42.1365 23.6465 41.48 22.9134C40.8236 22.1802 39.92 21.7147 38.9419 21.606Z" fill="#0473BA"/>
</svg>
