<svg width="45" height="42" viewBox="0 0 45 42" fill="none" xmlns="http://www.w3.org/2000/svg">
<mask id="mask0_91_227" style="mask-type:luminance" maskUnits="userSpaceOnUse" x="0" y="-2" width="45" height="44">
<path d="M42.5 7V34C42.5 37.314 33.546 40 22.5 40C11.454 40 2.5 37.314 2.5 34V7" stroke="white" stroke-width="4" stroke-linecap="round" stroke-linejoin="round"/>
<path d="M42.5 25C42.5 28.314 33.546 31 22.5 31C11.454 31 2.5 28.314 2.5 25M42.5 16C42.5 19.314 33.546 22 22.5 22C11.454 22 2.5 19.314 2.5 16" stroke="white" stroke-width="4" stroke-linecap="round" stroke-linejoin="round"/>
<path d="M22.5 12C33.5457 12 42.5 9.31371 42.5 6C42.5 2.68629 33.5457 0 22.5 0C11.4543 0 2.5 2.68629 2.5 6C2.5 9.31371 11.4543 12 22.5 12Z" fill="white" stroke="white" stroke-width="4" stroke-linecap="round" stroke-linejoin="round"/>
</mask>
<g mask="url(#mask0_91_227)">
<path d="M-1.5 -4H46.5V44H-1.5V-4Z" fill="#0473BA"/>
</g>
</svg>
